<svg xmlns="http://www.w3.org/2000/svg" viewBox="0 0 948 529" width="948" height="529" fill="none">
  <path d="M 947 340 L 945 333 L 941 331 L 924 359 L 913 372 L 892 390 L 871 403 L 852 412 L 826 421 L 799 428 L 764 434 L 726 435 L 701 433 L 670 428 L 632 419 L 606 410 L 548 383 L 542 378 L 543 376 L 603 349 L 647 326 L 700 295 L 735 271 L 757 253 L 787 222 L 803 199 L 813 178 L 816 168 L 819 149 L 819 133 L 816 115 L 808 95 L 796 81 L 783 74 L 770 70 L 756 68 L 737 68 L 731 51 L 723 37 L 713 26 L 704 19 L 693 13 L 674 6 L 655 2 L 635 0 L 605 0 L 572 4 L 537 12 L 486 28 L 439 46 L 401 63 L 360 84 L 326 104 L 288 129 L 258 151 L 222 180 L 188 210 L 139 259 L 113 288 L 82 327 L 58 362 L 56 361 L 46 315 L 41 300 L 34 286 L 23 275 L 11 268 L 3 267 L 0 272 L 3 302 L 29 417 L 29 434 L 31 444 L 37 455 L 49 467 L 59 475 L 65 478 L 70 478 L 75 471 L 88 432 L 105 397 L 122 369 L 146 335 L 178 297 L 209 265 L 253 226 L 294 194 L 341 161 L 403 123 L 454 97 L 501 77 L 537 64 L 578 54 L 630 49 L 661 50 L 691 56 L 703 62 L 711 70 L 655 85 L 606 102 L 569 117 L 567 116 L 568 103 L 566 95 L 557 86 L 552 84 L 548 85 L 546 88 L 538 127 L 535 132 L 506 145 L 442 181 L 397 211 L 357 242 L 323 272 L 273 322 L 248 350 L 220 385 L 218 381 L 213 355 L 205 337 L 191 325 L 180 320 L 174 321 L 172 328 L 191 430 L 190 449 L 195 461 L 202 469 L 216 481 L 223 484 L 227 484 L 233 475 L 241 453 L 253 429 L 272 399 L 291 375 L 333 332 L 379 290 L 418 259 L 467 226 L 512 200 L 514 202 L 493 259 L 465 344 L 460 347 L 395 363 L 354 376 L 321 391 L 314 396 L 312 402 L 312 421 L 315 441 L 318 450 L 322 455 L 325 456 L 333 455 L 348 450 L 418 422 L 436 416 L 441 416 L 417 496 L 417 510 L 419 515 L 426 523 L 435 528 L 438 528 L 442 523 L 473 415 L 475 413 L 591 459 L 629 472 L 663 481 L 683 485 L 717 489 L 757 489 L 793 485 L 829 477 L 864 465 L 889 453 L 915 435 L 930 419 L 941 399 L 946 374 Z" fill="#000000" fill-rule="evenodd"/>
</svg>
