<svg xmlns="http://www.w3.org/2000/svg" viewBox="0 0 1374 710" width="1374" height="710">
  <path d="M 1368.0 493.0 L 1367.0 490.0 L 1364.0 487.0 L 1361.0 487.0 L 1355.0 493.0 L 1347.0 506.0 L 1336.0 520.0 L 1317.0 540.0 L 1297.0 556.0 L 1282.0 566.0 L 1249.0 584.0 L 1225.0 594.0 L 1174.0 609.0 L 1170.0 609.0 L 1162.0 612.0 L 1153.0 613.0 L 1144.0 616.0 L 1133.0 617.0 L 1128.0 619.0 L 1095.0 622.0 L 1094.0 623.0 L 1058.0 623.0 L 1057.0 622.0 L 1046.0 622.0 L 1045.0 621.0 L 1034.0 621.0 L 1033.0 620.0 L 1021.0 620.0 L 1020.0 619.0 L 1013.0 619.0 L 1006.0 617.0 L 999.0 617.0 L 998.0 616.0 L 975.0 613.0 L 966.0 610.0 L 956.0 609.0 L 949.0 606.0 L 941.0 605.0 L 907.0 594.0 L 876.0 581.0 L 872.0 578.0 L 870.0 578.0 L 818.0 552.0 L 810.0 546.0 L 810.0 543.0 L 812.0 541.0 L 829.0 533.0 L 831.0 531.0 L 835.0 530.0 L 839.0 527.0 L 843.0 526.0 L 858.0 517.0 L 862.0 516.0 L 886.0 502.0 L 890.0 501.0 L 943.0 470.0 L 1012.0 426.0 L 1065.0 387.0 L 1093.0 363.0 L 1136.0 319.0 L 1148.0 302.0 L 1154.0 290.0 L 1161.0 268.0 L 1163.0 248.0 L 1162.0 247.0 L 1161.0 216.0 L 1160.0 215.0 L 1160.0 207.0 L 1158.0 198.0 L 1157.0 180.0 L 1151.0 158.0 L 1140.0 140.0 L 1128.0 129.0 L 1114.0 122.0 L 1102.0 120.0 L 1097.0 118.0 L 1074.0 117.0 L 1068.0 87.0 L 1061.0 70.0 L 1054.0 58.0 L 1047.0 49.0 L 1037.0 39.0 L 1026.0 31.0 L 1000.0 18.0 L 978.0 11.0 L 958.0 7.0 L 930.0 5.0 L 929.0 4.0 L 899.0 4.0 L 898.0 5.0 L 864.0 7.0 L 863.0 8.0 L 856.0 8.0 L 851.0 10.0 L 837.0 11.0 L 832.0 13.0 L 803.0 18.0 L 795.0 21.0 L 786.0 22.0 L 783.0 24.0 L 775.0 25.0 L 768.0 28.0 L 764.0 28.0 L 757.0 31.0 L 750.0 32.0 L 740.0 36.0 L 737.0 36.0 L 730.0 39.0 L 724.0 40.0 L 721.0 42.0 L 712.0 44.0 L 709.0 46.0 L 703.0 47.0 L 697.0 50.0 L 694.0 50.0 L 689.0 53.0 L 686.0 53.0 L 680.0 56.0 L 672.0 58.0 L 659.0 64.0 L 656.0 64.0 L 651.0 67.0 L 636.0 72.0 L 624.0 78.0 L 619.0 79.0 L 617.0 81.0 L 603.0 86.0 L 601.0 88.0 L 594.0 90.0 L 592.0 92.0 L 564.0 104.0 L 562.0 106.0 L 536.0 118.0 L 519.0 128.0 L 517.0 128.0 L 506.0 135.0 L 504.0 135.0 L 443.0 171.0 L 440.0 174.0 L 432.0 178.0 L 385.0 210.0 L 346.0 239.0 L 302.0 275.0 L 243.0 329.0 L 195.0 378.0 L 143.0 439.0 L 125.0 463.0 L 124.0 466.0 L 118.0 473.0 L 117.0 476.0 L 104.0 494.0 L 85.0 527.0 L 82.0 524.0 L 81.0 514.0 L 74.0 486.0 L 74.0 481.0 L 71.0 473.0 L 70.0 464.0 L 68.0 461.0 L 66.0 450.0 L 55.0 423.0 L 50.0 416.0 L 40.0 406.0 L 32.0 400.0 L 18.0 393.0 L 10.0 392.0 L 7.0 394.0 L 4.0 402.0 L 4.0 412.0 L 5.0 413.0 L 8.0 440.0 L 10.0 445.0 L 11.0 456.0 L 13.0 461.0 L 14.0 472.0 L 17.0 482.0 L 18.0 492.0 L 21.0 501.0 L 22.0 511.0 L 24.0 515.0 L 25.0 525.0 L 28.0 534.0 L 29.0 543.0 L 31.0 547.0 L 33.0 561.0 L 35.0 565.0 L 36.0 575.0 L 38.0 579.0 L 40.0 593.0 L 43.0 603.0 L 43.0 608.0 L 46.0 618.0 L 46.0 640.0 L 50.0 655.0 L 56.0 666.0 L 85.0 694.0 L 97.0 701.0 L 102.0 702.0 L 106.0 701.0 L 110.0 697.0 L 113.0 690.0 L 121.0 656.0 L 123.0 653.0 L 124.0 647.0 L 132.0 625.0 L 134.0 623.0 L 135.0 618.0 L 142.0 604.0 L 142.0 602.0 L 167.0 555.0 L 186.0 525.0 L 209.0 493.0 L 231.0 465.0 L 263.0 428.0 L 309.0 381.0 L 361.0 335.0 L 420.0 289.0 L 493.0 239.0 L 576.0 189.0 L 641.0 156.0 L 715.0 124.0 L 718.0 124.0 L 723.0 121.0 L 739.0 116.0 L 742.0 114.0 L 748.0 113.0 L 751.0 111.0 L 766.0 106.0 L 769.0 106.0 L 775.0 103.0 L 782.0 102.0 L 785.0 100.0 L 796.0 98.0 L 804.0 95.0 L 808.0 95.0 L 816.0 92.0 L 825.0 91.0 L 829.0 89.0 L 840.0 88.0 L 845.0 86.0 L 867.0 84.0 L 875.0 82.0 L 888.0 82.0 L 889.0 81.0 L 949.0 81.0 L 950.0 82.0 L 960.0 82.0 L 966.0 84.0 L 984.0 86.0 L 1012.0 95.0 L 1022.0 100.0 L 1032.0 107.0 L 1041.0 118.0 L 1039.0 120.0 L 1024.0 121.0 L 1023.0 122.0 L 1017.0 122.0 L 1011.0 124.0 L 995.0 126.0 L 990.0 128.0 L 981.0 129.0 L 977.0 131.0 L 968.0 132.0 L 946.0 139.0 L 942.0 139.0 L 909.0 150.0 L 896.0 153.0 L 890.0 156.0 L 884.0 157.0 L 878.0 160.0 L 875.0 160.0 L 869.0 163.0 L 866.0 163.0 L 830.0 176.0 L 829.0 175.0 L 830.0 152.0 L 826.0 143.0 L 817.0 135.0 L 811.0 133.0 L 805.0 134.0 L 802.0 137.0 L 799.0 146.0 L 798.0 156.0 L 796.0 161.0 L 794.0 175.0 L 792.0 179.0 L 791.0 188.0 L 788.0 192.0 L 721.0 221.0 L 717.0 224.0 L 715.0 224.0 L 711.0 227.0 L 707.0 228.0 L 687.0 239.0 L 685.0 239.0 L 661.0 253.0 L 659.0 253.0 L 592.0 293.0 L 522.0 342.0 L 482.0 374.0 L 429.0 421.0 L 382.0 468.0 L 345.0 510.0 L 312.0 554.0 L 310.0 553.0 L 309.0 550.0 L 309.0 544.0 L 307.0 539.0 L 306.0 529.0 L 298.0 501.0 L 292.0 489.0 L 284.0 480.0 L 270.0 470.0 L 259.0 465.0 L 251.0 466.0 L 249.0 468.0 L 248.0 472.0 L 248.0 487.0 L 249.0 488.0 L 250.0 505.0 L 252.0 511.0 L 253.0 524.0 L 256.0 535.0 L 256.0 541.0 L 259.0 552.0 L 261.0 569.0 L 263.0 574.0 L 264.0 584.0 L 266.0 589.0 L 268.0 605.0 L 270.0 610.0 L 271.0 621.0 L 273.0 627.0 L 272.0 649.0 L 275.0 661.0 L 282.0 673.0 L 296.0 687.0 L 314.0 701.0 L 321.0 704.0 L 327.0 704.0 L 330.0 702.0 L 334.0 694.0 L 342.0 669.0 L 353.0 646.0 L 353.0 644.0 L 370.0 614.0 L 370.0 612.0 L 374.0 607.0 L 381.0 594.0 L 397.0 571.0 L 417.0 546.0 L 453.0 509.0 L 513.0 456.0 L 564.0 415.0 L 596.0 391.0 L 675.0 338.0 L 715.0 314.0 L 733.0 305.0 L 742.0 299.0 L 746.0 298.0 L 755.0 292.0 L 757.0 292.0 L 758.0 295.0 L 752.0 308.0 L 751.0 314.0 L 746.0 325.0 L 740.0 345.0 L 731.0 368.0 L 731.0 371.0 L 728.0 377.0 L 727.0 383.0 L 724.0 389.0 L 723.0 395.0 L 721.0 398.0 L 720.0 404.0 L 717.0 410.0 L 708.0 440.0 L 706.0 443.0 L 706.0 446.0 L 698.0 468.0 L 698.0 471.0 L 695.0 477.0 L 694.0 483.0 L 692.0 486.0 L 689.0 498.0 L 685.0 502.0 L 669.0 507.0 L 666.0 509.0 L 658.0 509.0 L 647.0 506.0 L 611.0 506.0 L 610.0 507.0 L 603.0 507.0 L 597.0 509.0 L 591.0 509.0 L 576.0 513.0 L 567.0 514.0 L 564.0 516.0 L 560.0 516.0 L 549.0 520.0 L 546.0 520.0 L 540.0 523.0 L 537.0 523.0 L 511.0 532.0 L 455.0 556.0 L 451.0 560.0 L 449.0 565.0 L 449.0 572.0 L 448.0 573.0 L 449.0 603.0 L 456.0 635.0 L 460.0 644.0 L 464.0 648.0 L 473.0 651.0 L 498.0 651.0 L 499.0 650.0 L 522.0 648.0 L 532.0 645.0 L 542.0 644.0 L 603.0 626.0 L 606.0 624.0 L 633.0 615.0 L 653.0 606.0 L 655.0 609.0 L 653.0 612.0 L 651.0 623.0 L 649.0 627.0 L 643.0 658.0 L 643.0 678.0 L 645.0 687.0 L 650.0 694.0 L 663.0 704.0 L 671.0 705.0 L 677.0 701.0 L 680.0 695.0 L 687.0 672.0 L 688.0 665.0 L 690.0 662.0 L 691.0 655.0 L 694.0 648.0 L 699.0 626.0 L 701.0 623.0 L 708.0 594.0 L 711.0 592.0 L 734.0 601.0 L 741.0 605.0 L 746.0 606.0 L 748.0 608.0 L 750.0 608.0 L 789.0 627.0 L 791.0 627.0 L 795.0 630.0 L 829.0 644.0 L 836.0 648.0 L 839.0 648.0 L 844.0 651.0 L 849.0 652.0 L 854.0 655.0 L 859.0 656.0 L 864.0 659.0 L 867.0 659.0 L 872.0 662.0 L 888.0 667.0 L 899.0 672.0 L 958.0 690.0 L 967.0 691.0 L 975.0 694.0 L 980.0 694.0 L 990.0 697.0 L 1002.0 698.0 L 1015.0 701.0 L 1036.0 702.0 L 1037.0 703.0 L 1047.0 703.0 L 1048.0 704.0 L 1099.0 704.0 L 1100.0 703.0 L 1121.0 702.0 L 1122.0 701.0 L 1130.0 701.0 L 1136.0 699.0 L 1149.0 698.0 L 1177.0 691.0 L 1181.0 691.0 L 1188.0 688.0 L 1209.0 683.0 L 1212.0 681.0 L 1230.0 676.0 L 1253.0 666.0 L 1258.0 665.0 L 1260.0 663.0 L 1265.0 662.0 L 1267.0 660.0 L 1269.0 660.0 L 1289.0 649.0 L 1293.0 648.0 L 1311.0 637.0 L 1338.0 616.0 L 1356.0 596.0 L 1364.0 580.0 L 1364.0 576.0 L 1367.0 567.0 L 1368.0 547.0 L 1369.0 546.0 L 1369.0 501.0 L 1368.0 500.0 Z M 1127.0 208.0 L 1126.0 215.0 L 1118.0 229.0 L 1099.0 255.0 L 1087.0 269.0 L 1055.0 299.0 L 1008.0 335.0 L 971.0 359.0 L 915.0 391.0 L 904.0 396.0 L 895.0 402.0 L 891.0 403.0 L 882.0 409.0 L 878.0 410.0 L 848.0 427.0 L 846.0 427.0 L 813.0 445.0 L 811.0 445.0 L 807.0 448.0 L 805.0 448.0 L 782.0 460.0 L 756.0 471.0 L 754.0 473.0 L 743.0 478.0 L 740.0 477.0 L 752.0 440.0 L 752.0 437.0 L 758.0 423.0 L 758.0 420.0 L 765.0 402.0 L 769.0 386.0 L 776.0 368.0 L 777.0 361.0 L 779.0 358.0 L 787.0 329.0 L 790.0 323.0 L 791.0 316.0 L 793.0 313.0 L 795.0 303.0 L 797.0 300.0 L 805.0 269.0 L 807.0 267.0 L 830.0 256.0 L 842.0 252.0 L 844.0 250.0 L 849.0 249.0 L 854.0 246.0 L 869.0 241.0 L 871.0 239.0 L 877.0 238.0 L 893.0 231.0 L 896.0 231.0 L 926.0 220.0 L 943.0 216.0 L 946.0 214.0 L 1010.0 199.0 L 1016.0 199.0 L 1027.0 196.0 L 1043.0 195.0 L 1044.0 194.0 L 1046.0 196.0 L 1041.0 213.0 L 1041.0 224.0 L 1042.0 225.0 L 1048.0 224.0 L 1054.0 218.0 L 1061.0 204.0 L 1064.0 194.0 L 1066.0 192.0 L 1083.0 192.0 L 1084.0 193.0 L 1092.0 193.0 L 1097.0 195.0 L 1106.0 196.0 L 1121.0 203.0 Z" fill="#000" fill-rule="evenodd"/>
</svg>